<?xml version="1.0" standalone="no"?>
<!DOCTYPE svg PUBLIC "-//W3C//DTD SVG 20010904//EN"
 "http://www.w3.org/TR/2001/REC-SVG-20010904/DTD/svg10.dtd">
<svg version="1.0" xmlns="http://www.w3.org/2000/svg"
 width="768.000000pt" height="768.000000pt" viewBox="0 0 768.000000 768.000000"
 preserveAspectRatio="xMidYMid meet">
<metadata>
Created by potrace 1.14, written by Peter Selinger 2001-2017
</metadata>
<g transform="translate(0.000000,768.000000) scale(0.100000,-0.100000)"
fill="#000000" stroke="none">
<path d="M3721 7652 c0 -7 -5 -10 -11 -7 -5 3 -10 0 -10 -7 0 -9 -3 -9 -10 2
-8 13 -11 12 -25 -5 -15 -20 -15 -20 -9 0 6 16 5 18 -7 8 -16 -16 -33 -17 -23
-1 4 7 3 8 -5 4 -9 -6 -9 -11 0 -22 10 -12 9 -13 -6 -8 -14 6 -16 4 -10 -6 5
-8 4 -11 -2 -7 -15 9 -63 16 -62 9 3 -21 -3 -30 -23 -35 -22 -6 -22 -6 -4 8
11 8 15 15 9 15 -5 0 -20 -9 -33 -20 -27 -23 -34 -25 -25 -7 4 6 -5 -1 -19
-16 -14 -15 -26 -23 -26 -16 0 8 -4 8 -15 -1 -8 -7 -12 -17 -8 -24 4 -7 1 -6
-8 1 -13 10 -19 10 -35 -3 -10 -8 -13 -12 -5 -8 9 5 12 3 7 -5 -4 -6 -11 -9
-16 -6 -5 3 -16 -2 -24 -11 -9 -8 -16 -12 -16 -8 0 4 -8 -3 -19 -14 -10 -12
-21 -19 -24 -16 -8 8 -47 -28 -41 -38 3 -5 2 -8 -3 -7 -19 3 -31 -2 -37 -17
-6 -15 -4 -15 11 -4 10 8 7 2 -7 -12 -14 -14 -27 -24 -30 -23 -3 1 -13 -6 -22
-17 -10 -10 -15 -18 -12 -18 3 0 -17 -24 -45 -52 -31 -32 -50 -60 -47 -70 2
-10 -1 -15 -8 -12 -14 5 -78 -61 -69 -70 4 -3 0 -6 -7 -6 -7 0 -10 -3 -7 -6 4
-4 -3 -15 -15 -25 -11 -11 -17 -19 -12 -19 5 0 2 -5 -6 -10 -11 -7 -12 -10 -2
-10 18 0 43 26 34 36 -4 5 2 2 12 -6 18 -14 19 -13 13 2 -3 10 -3 20 2 22 11
7 10 -27 -1 -41 -6 -7 -14 -10 -19 -8 -11 7 -32 -33 -25 -50 3 -9 0 -12 -9 -8
-11 4 -12 10 -4 24 6 13 6 19 -1 19 -5 0 -10 -7 -10 -15 0 -8 -5 -15 -11 -15
-6 0 -9 -7 -5 -15 3 -8 -2 -19 -12 -24 -9 -6 -12 -10 -7 -11 20 0 37 18 30 31
-6 11 -5 12 5 2 12 -11 11 -16 -6 -31 -10 -10 -23 -20 -29 -23 -5 -2 -9 -8 -7
-12 3 -10 -24 -37 -32 -32 -3 3 -4 2 -1 -2 3 -3 0 -13 -7 -20 -9 -11 -9 -17 3
-24 11 -7 10 -9 -5 -9 -13 0 -17 -5 -13 -20 4 -14 0 -20 -11 -21 -11 0 -13 -2
-4 -6 10 -4 10 -8 0 -21 -11 -13 -11 -14 1 -7 11 6 13 4 8 -7 -3 -9 0 -21 6
-28 9 -9 9 -11 1 -7 -7 4 -14 0 -18 -8 -3 -8 -2 -15 3 -15 4 0 8 -7 8 -15 0
-9 -6 -14 -13 -11 -8 3 -11 0 -7 -9 3 -8 9 -12 14 -9 5 3 9 -2 9 -11 0 -9 -4
-13 -10 -10 -5 3 -10 -1 -10 -9 0 -9 6 -16 13 -16 8 0 7 -4 -3 -10 -12 -8 -12
-10 -1 -10 11 0 11 -3 1 -15 -7 -8 -9 -15 -4 -15 5 -1 -67 -32 -161 -69 -456
-184 -803 -412 -1139 -747 -107 -106 -237 -252 -275 -308 -8 -12 -17 -23 -20
-26 -23 -20 -151 -209 -219 -322 -65 -108 -168 -314 -218 -433 -61 -147 -149
-423 -169 -528 -3 -12 -14 -67 -25 -122 -10 -55 -22 -124 -25 -154 -3 -30 -8
-57 -10 -60 -10 -17 -20 -221 -20 -416 0 -248 9 -368 40 -545 12 -70 19 -107
20 -120 8 -58 63 -264 104 -387 76 -231 164 -426 279 -623 66 -113 172 -274
184 -278 4 -2 8 -8 8 -13 0 -12 88 -125 179 -229 127 -147 329 -339 461 -440
25 -19 51 -40 58 -47 7 -7 17 -13 21 -13 4 0 16 -8 27 -18 31 -28 123 -92 133
-92 5 0 11 -4 13 -8 3 -8 151 -97 253 -152 33 -17 62 -35 65 -39 7 -11 124
-65 232 -107 226 -88 464 -153 733 -200 237 -41 715 -51 915 -20 14 2 52 7 85
11 32 4 68 9 80 11 11 2 45 8 75 14 30 6 66 12 80 15 49 9 256 63 340 89 172
51 540 208 565 240 6 7 33 25 60 41 562 321 1034 821 1333 1411 118 234 250
617 285 829 3 17 12 71 20 120 9 50 18 106 21 125 28 187 29 675 1 830 -2 14
-6 45 -9 70 -6 50 -10 73 -42 240 -3 14 -9 39 -14 55 -5 17 -12 41 -14 55 -10
47 -43 168 -50 179 -4 6 -10 23 -12 38 -3 15 -8 31 -12 37 -3 6 -7 16 -8 21
-3 21 -54 147 -105 265 -91 205 -254 484 -376 640 -293 378 -627 675 -1003
893 -79 46 -363 184 -437 212 -40 16 -73 32 -73 37 0 5 -6 6 -12 2 -10 -6 -10
-4 -2 7 15 20 16 112 1 102 -7 -4 -6 0 2 10 11 14 11 17 0 17 -11 0 -11 2 1
10 11 7 11 10 2 10 -8 0 -10 5 -5 13 13 21 12 37 -3 37 -8 0 -14 4 -14 9 0 5
-5 22 -12 38 -15 37 -16 47 -3 55 6 5 6 8 -2 8 -7 0 -13 6 -13 14 0 8 -5 18
-11 22 -8 4 -9 -1 -5 -17 6 -21 5 -22 -4 -6 -17 26 -23 70 -10 62 7 -4 6 2 -2
16 -7 13 -19 28 -25 32 -7 4 -13 12 -13 17 0 5 -9 24 -21 42 -12 18 -18 25
-15 15 3 -11 2 -16 -5 -12 -5 4 -9 14 -7 24 3 21 -37 91 -53 91 -8 0 -7 5 2
17 10 11 10 14 2 9 -12 -7 -18 11 -14 37 1 5 -2 6 -7 3 -10 -6 -52 46 -52 64
0 6 -7 13 -15 16 -8 4 -13 10 -10 14 3 5 -5 16 -17 24 -15 11 -18 16 -8 16 13
0 13 1 0 9 -8 6 -18 7 -24 4 -5 -3 -6 -2 -3 4 7 11 -28 44 -38 35 -4 -4 -6 -2
-5 3 5 22 -1 34 -20 40 -11 3 -19 9 -18 13 3 11 -26 52 -36 52 -5 0 -2 -8 7
-18 10 -10 17 -22 17 -27 0 -9 -44 46 -46 57 -1 5 -2 11 -3 14 0 4 -9 0 -18
-7 -15 -12 -16 -12 -11 2 7 19 -9 39 -31 38 -9 0 -6 -4 8 -10 13 -5 21 -12 18
-15 -7 -8 -67 18 -67 28 0 5 -7 8 -15 8 -8 0 -15 5 -15 11 0 6 -7 9 -15 5 -8
-3 -15 0 -15 7 0 9 -3 8 -9 -1 -7 -11 -9 -11 -14 1 -7 19 -154 20 -161 1 -3
-7 -15 -18 -27 -24 -12 -7 -19 -8 -15 -2 3 6 2 13 -4 17 -5 3 -10 -2 -10 -12
0 -14 -2 -15 -9 -4 -7 11 -9 11 -13 0 -4 -10 -13 -7 -34 13 -63 58 -213 109
-251 85 -6 -4 -13 -2 -15 4 -3 8 -9 6 -20 -5 -15 -15 -17 -15 -21 2 -3 9 -5
11 -6 4z m-151 -52 c0 -5 -5 -10 -11 -10 -5 0 -7 5 -4 10 3 6 8 10 11 10 2 0
4 -4 4 -10z m120 0 c0 -5 -5 -10 -11 -10 -5 0 -7 5 -4 10 3 6 8 10 11 10 2 0
4 -4 4 -10z m-103 -35 c0 -8 -4 -12 -9 -9 -5 3 -6 10 -3 15 9 13 12 11 12 -6z
m-52 -25 c3 -6 -1 -7 -9 -4 -18 7 -21 14 -7 14 6 0 13 -4 16 -10z m-35 -11
c12 -9 12 -10 -4 -5 -11 4 -23 1 -27 -5 -4 -7 -17 -14 -29 -16 -17 -2 -19 -1
-8 11 8 8 15 10 19 4 3 -5 9 -3 12 6 7 19 16 20 37 5z m-130 -63 c0 -2 -7 -7
-16 -10 -8 -3 -12 -2 -9 4 6 10 25 14 25 6z m-70 -40 c0 -2 -7 -7 -16 -10 -8
-3 -12 -2 -9 4 6 10 25 14 25 6z m-70 -46 c0 -5 -5 -10 -11 -10 -5 0 -7 5 -4
10 3 6 8 10 11 10 2 0 4 -4 4 -10z m-127 -135 c-3 -9 -8 -14 -10 -11 -3 3 -2
9 2 15 9 16 15 13 8 -4z m-109 -122 c-5 -15 -3 -15 10 1 9 11 16 15 16 9 0
-13 -18 -26 -37 -29 -9 -2 -10 3 -3 17 13 24 21 25 14 2z m1876 -154 c0 -6 -4
-7 -10 -4 -5 3 -10 11 -10 16 0 6 5 7 10 4 6 -3 10 -11 10 -16z m34 -56 c3 -7
0 -15 -7 -19 -7 -4 -9 -3 -4 1 4 5 -3 20 -15 33 l-23 25 22 -14 c13 -7 25 -19
27 -26z"/>
<path d="M4115 7570 c-3 -5 -1 -10 4 -10 6 0 11 5 11 10 0 6 -2 10 -4 10 -3 0
-8 -4 -11 -10z"/>
<path d="M4930 6875 c-11 -13 -10 -14 4 -9 9 3 16 10 16 15 0 13 -6 11 -20 -6z"/>
<path d="M4973 6798 c-7 -9 -5 -21 3 -38 10 -18 14 -20 14 -8 0 9 -5 20 -11
24 -8 4 -7 9 2 15 7 4 11 11 8 14 -4 3 -11 0 -16 -7z"/>
</g>
</svg>
