<svg width="98" height="100" viewBox="0 0 98 100" fill="none" xmlns="http://www.w3.org/2000/svg">
<g clip-path="url(#clip0_17_647)">
<path d="M97.121 83.3333C97.121 92.5 89.9028 100 81.0807 100H16.9194C8.09718 100 0.879028 92.5 0.879028 83.3333V16.6667C0.879028 7.5 8.09718 0 16.9194 0H81.0807C89.9028 0 97.121 7.5 97.121 16.6667V83.3333Z" fill="#563D7C"/>
<path d="M27.0308 21.7322H54.315C59.3473 21.7322 63.3888 22.925 66.4239 25.3269C69.459 27.7289 70.9844 31.34 70.9844 36.193C70.9844 39.1341 70.2925 41.6505 68.9086 43.742C67.5247 45.8335 65.5433 47.4675 62.9642 48.6113V48.7747C66.4239 49.5426 69.0501 51.242 70.8272 53.8727C72.6042 56.5198 73.5005 59.8204 73.5005 63.8073C73.5005 66.0949 73.1074 68.2354 72.3211 70.2126C71.5348 72.206 70.3082 73.9217 68.6255 75.3596C66.9429 76.7975 64.8042 77.9413 62.178 78.791C59.5517 79.6407 56.438 80.0655 52.8211 80.0655H27.0308V21.7322ZM36.8594 46.1603H52.8997C55.2586 46.1603 57.2243 45.474 58.7969 44.0688C60.3695 42.6636 61.1558 40.6701 61.1558 38.0557C61.1558 35.1145 60.4481 33.0394 59.0328 31.8466C57.6175 30.6537 55.5731 30.0492 52.8997 30.0492H36.8594V46.1603ZM36.8594 71.7322H54.2364C57.2243 71.7322 59.5517 70.9315 61.1872 69.3139C62.8384 67.7126 63.6719 65.425 63.6719 62.4838C63.6719 59.5917 62.8542 57.3858 61.1872 55.8171C59.5203 54.2485 57.2243 53.4969 54.2364 53.4969H36.8594V71.7322Z" fill="white"/>
</g>
<defs>
<clipPath id="clip0_17_647">
<rect width="96.242" height="100" fill="white" transform="translate(0.879028)"/>
</clipPath>
</defs>
</svg>
