<svg width="98" height="100" viewBox="0 0 98 100" fill="none" xmlns="http://www.w3.org/2000/svg">
<path d="M0.879028 0H97.121V100H0.879028V0Z" fill="#F7DF1E"/>
<path d="M26.1848 83.567L33.5499 78.9358C34.9708 81.5534 36.2633 83.7682 39.3637 83.7682C42.3356 83.7682 44.2092 82.5602 44.2092 77.8618V45.9094H53.2535V77.9947C53.2535 87.728 47.7625 92.1583 39.7514 92.1583C32.5163 92.1583 28.3165 88.2648 26.1846 83.5662" fill="black"/>
<path d="M58.1658 82.5602L65.53 78.1299C67.4686 81.4194 69.9882 83.8358 74.4456 83.8358C78.193 83.8358 80.5827 81.889 80.5827 79.2039C80.5827 75.9818 78.128 74.8406 73.9932 72.9617L71.7327 71.954C65.2074 69.0682 60.8788 65.4434 60.8788 57.7909C60.8788 50.7426 66.047 45.3723 74.1228 45.3723C79.8725 45.3723 84.0071 47.4534 86.9786 52.8907L79.9367 57.5893C78.3861 54.7031 76.7069 53.5622 74.1229 53.5622C71.4741 53.5622 69.7943 55.3074 69.7943 57.5893C69.7943 60.4087 71.4741 61.5501 75.3499 63.2955L77.6108 64.3023C85.2987 67.726 89.6273 71.2161 89.6273 79.0696C89.6273 87.528 83.2317 92.1593 74.6396 92.1593C66.2412 92.1593 60.8143 87.9977 58.166 82.5602" fill="black"/>
</svg>
