<svg width="106" height="100" viewBox="0 0 106 100" fill="none" xmlns="http://www.w3.org/2000/svg">
<path d="M0.101685 49.5504C0.101685 57.9044 7.90347 65.7033 20.2036 70.0992C17.7474 83.0286 19.7634 93.4496 26.4972 97.5103C33.4188 101.684 43.7302 98.7949 53.5172 89.8497C63.0573 98.4337 72.6992 101.812 79.4267 97.7398C86.3415 93.5542 88.4449 82.4263 85.9207 69.0933C98.732 64.6644 105.898 58.0144 105.898 49.5504C105.898 41.39 98.082 34.3302 85.9477 29.9624C88.6651 16.0784 86.3626 5.91019 79.3501 1.68185C72.5893 -2.39453 62.8355 1.15845 53.1551 9.96729C43.0843 0.617401 33.4267 -2.23724 26.421 2.00343C19.6668 6.09141 17.7394 16.7018 20.2036 29.8706C8.3188 34.2034 0.101685 41.4226 0.101685 49.5504Z" fill="white"/>
<path d="M83.3765 34.2996C82.4018 33.9488 81.3918 33.6169 80.3519 33.303C80.5228 32.5737 80.6797 31.8537 80.8192 31.146C83.1087 19.5254 81.6117 10.1638 76.5 7.08156C71.5985 4.12609 63.5824 7.20764 55.4866 14.5745C54.708 15.2829 53.9274 16.0329 53.147 16.819C52.6271 16.2989 52.1079 15.7963 51.5902 15.3156C43.1055 7.43846 34.6009 4.11892 29.4942 7.21009C24.5973 10.1741 23.1472 18.9749 25.2081 29.9879C25.4071 31.0516 25.6397 32.1379 25.9028 33.2424C24.6992 33.5996 23.5372 33.9805 22.4254 34.3857C12.478 38.0119 6.12512 43.6952 6.12512 49.5902C6.12512 55.6786 12.9449 61.7854 23.3059 65.4883C24.1235 65.7805 24.9719 66.0568 25.8463 66.3191C25.5625 67.5136 25.3156 68.6842 25.1084 69.8259C23.1433 80.6477 24.6779 89.2406 29.5617 92.1859C34.6062 95.2276 43.0724 92.1011 51.3162 84.5663C51.9678 83.9707 52.6217 83.3391 53.2768 82.677C54.1259 83.532 54.9736 84.3411 55.8169 85.1C63.802 92.2849 71.6886 95.1862 76.5679 92.2326C81.6074 89.1822 83.2452 79.9514 81.1189 68.7206C80.9565 67.8628 80.7675 66.9865 80.5553 66.0947C81.1498 65.9109 81.7335 65.7212 82.3026 65.5239C93.0738 61.7924 100.082 55.7599 100.082 49.5902C100.082 43.6738 93.5242 37.9523 83.3765 34.2996Z" fill="#53C1DE"/>
<path d="M81.0403 61.5405C80.5266 61.7183 79.9994 61.8902 79.4622 62.0569C78.2731 58.1207 76.6683 53.9352 74.7044 49.6109C76.5785 45.3895 78.1213 41.2575 79.2771 37.3469C80.2382 37.6378 81.1711 37.9445 82.07 38.2682C90.7646 41.3978 96.0682 46.025 96.0682 49.5904C96.0682 53.3882 90.3405 58.3183 81.0403 61.5405ZM77.1814 69.5358C78.1216 74.502 78.2559 78.9919 77.6331 82.5019C77.0735 85.6558 75.9481 87.7586 74.5567 88.6008C71.5957 90.3929 65.2636 88.0634 58.4346 81.9189C57.6517 81.2145 56.8632 80.4624 56.0721 79.6664C58.7195 76.6389 61.3655 73.1193 63.9479 69.2104C68.49 68.789 72.7812 68.1 76.6728 67.1594C76.8645 67.9678 77.0347 68.7607 77.1814 69.5358ZM38.1572 88.2911C35.2642 89.3594 32.9601 89.39 31.5673 88.5503C28.6036 86.7629 27.3716 79.8636 29.0522 70.6088C29.2447 69.549 29.4738 68.4602 29.7379 67.3474C33.5868 68.2373 37.8466 68.8776 42.3996 69.2636C44.9994 73.0885 47.7217 76.6042 50.4652 79.6826C49.8658 80.2877 49.2687 80.8637 48.675 81.4065C45.0296 84.7383 41.3766 87.1022 38.1572 88.2911ZM24.604 61.5172C20.0226 59.8799 16.2391 57.7519 13.6457 55.4298C11.3153 53.3431 10.1388 51.2714 10.1388 49.5904C10.1388 46.0131 15.2395 41.4503 23.7466 38.3489C24.7788 37.9726 25.8594 37.618 26.9807 37.2849C28.1564 41.2838 29.6987 45.4647 31.56 49.6925C29.6747 53.9831 28.1104 58.2307 26.9232 62.2765C26.1238 62.0362 25.3493 61.7834 24.604 61.5172ZM29.1472 29.1821C27.3814 19.7465 28.5541 12.6286 31.5051 10.8425C34.6484 8.93977 41.5992 11.6527 48.925 18.4542C49.3933 18.889 49.8634 19.344 50.3349 19.8147C47.605 22.8797 44.9075 26.369 42.3308 30.1714C37.912 30.5996 33.6821 31.2875 29.7931 32.2088C29.5486 31.1804 29.332 30.17 29.1472 29.1821ZM69.6759 39.6461C68.7462 37.967 67.7918 36.3276 66.8187 34.733C69.8166 35.1293 72.6888 35.6553 75.386 36.299C74.5763 39.0126 73.5669 41.8498 72.3789 44.7584C71.5266 43.0666 70.6252 41.3607 69.6759 39.6461ZM53.1484 22.8141C54.9998 24.9113 56.8538 27.2528 58.6774 29.7933C56.8397 29.7025 54.9794 29.6553 53.1036 29.6553C51.2455 29.6553 49.3988 29.7015 47.5725 29.7907C49.398 27.2738 51.2681 24.9354 53.1484 22.8141ZM36.515 39.6752C35.5863 41.359 34.7016 43.0556 33.8627 44.7553C32.6939 41.8568 31.6939 39.0066 30.8771 36.2545C33.5578 35.6273 36.4165 35.1144 39.3953 34.7257C38.4085 36.335 37.4462 37.9864 36.515 39.6748V39.6752ZM39.481 64.7546C36.4035 64.3956 33.5018 63.9091 30.8218 63.2991C31.6516 60.4979 32.6736 57.5868 33.8672 54.626C34.7083 56.3245 35.5965 58.0218 36.5309 59.7092H36.5311C37.4828 61.4284 38.4689 63.1124 39.481 64.7546ZM53.2594 76.6627C51.3571 74.5165 49.4595 72.1425 47.6063 69.5888C49.4053 69.6626 51.2395 69.7004 53.1036 69.7004C55.0187 69.7004 56.9118 69.6553 58.7752 69.5685C56.9456 72.1682 55.0983 74.5459 53.2594 76.6627ZM72.4172 54.4751C73.673 57.4679 74.7316 60.3638 75.5722 63.1173C72.848 63.7671 69.9067 64.2905 66.8077 64.6794C67.7831 63.0632 68.7459 61.3957 69.692 59.6804C70.6491 57.945 71.5579 56.207 72.4172 54.4751ZM66.2152 57.5837C64.7464 60.2464 63.2386 62.7883 61.7078 65.1877C58.9197 65.3962 56.0393 65.5035 53.1036 65.5035C50.1797 65.5035 47.3356 65.4086 44.5968 65.2227C43.0043 62.7918 41.4637 60.2424 40.0043 57.6066H40.0047C38.5492 54.978 37.2096 52.3271 35.9957 49.6912C37.2092 47.049 38.5453 44.3952 39.9925 41.7713L39.9921 41.7718C41.4431 39.1409 42.9702 36.6039 44.548 34.1883C47.3423 33.9674 50.2076 33.8522 53.1034 33.8522H53.1036C56.0124 33.8522 58.8814 33.9683 61.6749 34.1911C63.2286 36.5891 64.7453 39.1178 66.202 41.7491C67.6752 44.4099 69.0285 47.0461 70.2524 49.6315C69.0322 52.2614 67.6819 54.9241 66.2152 57.5837ZM74.4951 10.7177C77.6415 12.6148 78.865 20.2661 76.8882 30.2992C76.7621 30.9394 76.6201 31.5915 76.4659 32.2523C72.5679 31.3119 68.335 30.612 63.9032 30.1773C61.3215 26.3331 58.6461 22.8384 55.9607 19.8128C56.6827 19.0866 57.4037 18.3941 58.1217 17.7406C65.0582 11.4287 71.5413 8.93662 74.4951 10.7177Z" fill="white"/>
<path d="M53.105 40.8179C57.7386 40.8179 61.495 44.7454 61.495 49.5905C61.495 54.4355 57.7386 58.3632 53.105 58.3632C48.4714 58.3632 44.715 54.4355 44.715 49.5905C44.715 44.7454 48.4714 40.8179 53.105 40.8179Z" fill="#53C1DE"/>
</svg>
